# xmcd
#
# Track frame offsets:
#	150
#	16018
#	34811
#	52998
#	72588
#	90176
#	113702
#	133074
#	150391
#	164264
#	174354
#	191537
#	209379
#
# Disc length: 3059 seconds
#
# Revision: 1
# Processed by: cddbd v1.5PL3 Copyright (c) Steve Scherf et al.
# Submitted via: audiograbber 1.80
#
DISCID=9e0bf10d
DTITLE=Big Syke - Be Yo´ Self
DYEAR=1900
DGENRE=
TTITLE0=High Dollaz
TTITLE1=Ain´t no Love
TTITLE2=Good Timez
TTITLE3=Big Syke Daddy
TTITLE4=Satelite Niggaz
TTITLE5=Be Yo´ Self
TTITLE6=On My Way Out
TTITLE7=Wasted Talent
TTITLE8=Why?
TTITLE9=At Your Convernience
TTITLE10=Enjoy N Life
TTITLE11=Till The End Of Time
TTITLE12=Taken From Granted
EXTD=
EXTT0=
EXTT1=
EXTT2=
EXTT3=
EXTT4=
EXTT5=
EXTT6=
EXTT7=
EXTT8=
EXTT9=
EXTT10=
EXTT11=
EXTT12=
PLAYORDER=
